<svg xmlns="http://www.w3.org/2000/svg" viewBox="0 0 48 48">
  <!-- Purple rounded background -->
  <rect width="48" height="48" rx="10" fill="#821E75"/>
  <!-- O: full ring -->
  <circle cx="14" cy="24" r="10.5" stroke="white" stroke-width="2.6" fill="none"/>
  <!-- O: person head -->
  <circle cx="14" cy="19.5" r="3.6" fill="white"/>
  <!-- O: person shoulders -->
  <path d="M5.2 30.5 C5.2 25.5 22.8 25.5 22.8 30.5" fill="white"/>
  <!-- F -->
  <path d="M27 10.5 C27.3 8.2 28.9 7 31.2 7 C32.3 7 33.1 7.4 33.1 7.4 L33.1 9.5 C32.4 9.2 31.6 8.9 30.8 8.9 C29.5 8.9 29 9.8 29 10.8 L29 13.6 L33.1 13.6 L33.1 15.5 L29 15.5 L29 29 L27 29 Z" fill="white"/>
  <!-- I dot -->
  <circle cx="38" cy="8.5" r="2" fill="white"/>
  <!-- I body -->
  <rect x="36.2" y="13.6" width="3.6" height="15.4" rx="0.4" fill="white"/>
</svg>
