<svg xmlns="http://www.w3.org/2000/svg" viewBox="0 0 48 48">
  <rect width="48" height="48" rx="10" fill="#821E75"/>
  <!-- "o" ring with person silhouette -->
  <circle cx="17" cy="20" r="13.5" stroke="white" stroke-width="2.8" fill="none"/>
  <circle cx="17" cy="15.5" r="4.6" fill="white"/>
  <path d="M6.5 29 C6.5 23 27.5 23 27.5 29" fill="white"/>
  <!-- "fi" letters -->
  <path d="M34.5 11 C34.8 9 36.2 8 38 8 C38.9 8 39.5 8.3 39.5 8.3 L39.5 10.2 C38.9 10 38.3 9.7 37.7 9.7 C36.5 9.7 36 10.4 36 11.3 L36 13.8 L39.6 13.8 L39.6 15.7 L36 15.7 L36 28 L34.5 28 Z" fill="white"/>
  <circle cx="43.5" cy="10.5" r="2" fill="white"/>
  <rect x="41.8" y="13.8" width="3.5" height="14.2" rx="0.3" fill="white"/>
</svg>
